# xmcd
#
# Track frame offsets:
#	150
#	11838
#	26478
#	38241
#	55336
#	64956
#	77504
#	89725
#	100825
#	113752
#	125122
#	138744
#	147614
#	157255
#	166610
#	181430
#	198785
#	208735
#	221985
#	232524
#	242649
#	257649
#	266828
#	276220
#	290084
#
# Disc length: 3995 seconds
#
# Revision: 0
# Processed by: cddbd v1.5.2PL0 Copyright (c) Steve Scherf et al.
# Submitted via: EZCDAudioConverter 2.1.5.1
#
DISCID=830f9919
DTITLE=Nashville Mandolines and Fiddles - 100 Classic Songs Cd 2
DYEAR=2009
DGENRE=Country
TTITLE0=Bill Bailey
TTITLE1=Under The Double Eagle
TTITLE2=Flop Eared Mule
TTITLE3=Leaning On The Everlasting Arms
TTITLE4=Dixie
TTITLE5=Swanee River
TTITLE6=Give Me The Roses While I Live
TTITLE7=Softly and Tenderly
TTITLE8=The Star Spangled Banner
TTITLE9=Whem They Ring Those Golden Bells
TTITLE10=Oh Death
TTITLE11=Benneath The Weeping Willow
TTITLE12=Arkansas Traveller
TTITLE13=Cindy
TTITLE14=Blessed Assurance
TTITLE15=Didn't Leave Nobody But The Baby
TTITLE16=Ol' Dan Tucker
TTITLE17=Black Mountain Rag
TTITLE18=Give Me That Old Time Religion
TTITLE19=Grandfather's Clock
TTITLE20=America The Beautiful
TTITLE21=She'll Be Comin' Round The Mountain
TTITLE22=In The Sweet By and By
TTITLE23=Abide With Me
TTITLE24=Cielito Lindo
EXTD=
EXTT0=
EXTT1=
EXTT2=
EXTT3=
EXTT4=
EXTT5=
EXTT6=
EXTT7=
EXTT8=
EXTT9=
EXTT10=
EXTT11=
EXTT12=
EXTT13=
EXTT14=
EXTT15=
EXTT16=
EXTT17=
EXTT18=
EXTT19=
EXTT20=
EXTT21=
EXTT22=
EXTT23=
EXTT24=
PLAYORDER=
